<svg width="43" height="43" viewBox="0 0 43 43" fill="none" xmlns="http://www.w3.org/2000/svg">
<g clip-path="url(#clip0_1_188)">
<circle cx="21.5" cy="21.5" r="21.5" fill="#473BF0"/>
<path d="M20.3979 20.9194H21.6763C22.0858 20.9194 22.4233 20.8503 22.689 20.7119C22.9546 20.568 23.151 20.3688 23.2783 20.1143C23.4111 19.8542 23.4775 19.5526 23.4775 19.2095C23.4775 18.8996 23.4167 18.6257 23.2949 18.3877C23.1787 18.1442 22.9989 17.9561 22.7554 17.8232C22.5119 17.6849 22.2048 17.6157 21.834 17.6157C21.5407 17.6157 21.2695 17.6738 21.0205 17.79C20.7715 17.9062 20.5723 18.0695 20.4229 18.2798C20.2734 18.4901 20.1987 18.7446 20.1987 19.0435H17.7998C17.7998 18.3794 17.9769 17.8011 18.3311 17.3086C18.6908 16.8161 19.1722 16.4315 19.7754 16.1548C20.3786 15.8781 21.0426 15.7397 21.7676 15.7397C22.5866 15.7397 23.3032 15.8726 23.9175 16.1382C24.5317 16.3983 25.0104 16.7829 25.3535 17.292C25.6966 17.8011 25.8682 18.432 25.8682 19.1846C25.8682 19.5664 25.7796 19.9372 25.6025 20.2969C25.4255 20.651 25.1709 20.972 24.8389 21.2598C24.5124 21.542 24.1139 21.7689 23.6436 21.9404C23.1732 22.1064 22.6447 22.1895 22.0581 22.1895H20.3979V20.9194ZM20.3979 22.7373V21.5005H22.0581C22.7166 21.5005 23.2949 21.5752 23.793 21.7246C24.291 21.874 24.7088 22.0898 25.0464 22.3721C25.384 22.6488 25.6385 22.978 25.8101 23.3599C25.9816 23.7362 26.0674 24.154 26.0674 24.6133C26.0674 25.1777 25.9595 25.6813 25.7437 26.124C25.5278 26.5612 25.2235 26.932 24.8306 27.2363C24.4432 27.5407 23.9894 27.7731 23.4692 27.9336C22.9491 28.0885 22.3818 28.166 21.7676 28.166C21.2585 28.166 20.7576 28.0968 20.2651 27.9585C19.7782 27.8146 19.3354 27.6016 18.937 27.3193C18.5441 27.0316 18.2287 26.6719 17.9907 26.2402C17.7583 25.8031 17.6421 25.2856 17.6421 24.688H20.041C20.041 24.9979 20.1185 25.2746 20.2734 25.5181C20.4284 25.7616 20.6414 25.9525 20.9126 26.0908C21.1893 26.2292 21.4964 26.2983 21.834 26.2983C22.2158 26.2983 22.5423 26.2292 22.8135 26.0908C23.0902 25.9469 23.3005 25.7477 23.4443 25.4932C23.5938 25.2331 23.6685 24.9315 23.6685 24.5884C23.6685 24.1457 23.5882 23.7915 23.4277 23.5259C23.2673 23.2547 23.0376 23.0555 22.7388 22.9282C22.4399 22.8009 22.0858 22.7373 21.6763 22.7373H20.3979Z" fill="white"/>
</g>
<defs>
<clipPath id="clip0_1_188">
<rect width="43" height="43" fill="white"/>
</clipPath>
</defs>
</svg>
