<svg width="43" height="43" viewBox="0 0 43 43" fill="none" xmlns="http://www.w3.org/2000/svg">
<g clip-path="url(#clip0_1_182)">
<circle cx="21.5" cy="21.5" r="21.5" fill="#473BF0"/>
<path d="M26.2168 26.1323V28H17.9492V26.4062L21.8589 22.2144C22.2518 21.7772 22.5617 21.3926 22.7886 21.0605C23.0155 20.723 23.1787 20.4214 23.2783 20.1558C23.3835 19.8846 23.436 19.6273 23.436 19.3838C23.436 19.0186 23.3752 18.7059 23.2534 18.4458C23.1317 18.1802 22.9518 17.9754 22.7139 17.8315C22.4814 17.6877 22.1937 17.6157 21.8506 17.6157C21.4854 17.6157 21.1699 17.7043 20.9043 17.8813C20.6442 18.0584 20.445 18.3047 20.3066 18.6201C20.1738 18.9355 20.1074 19.2925 20.1074 19.6909H17.7085C17.7085 18.9715 17.88 18.313 18.2231 17.7153C18.5662 17.1121 19.0505 16.6335 19.6758 16.2793C20.3011 15.9196 21.0426 15.7397 21.9004 15.7397C22.7471 15.7397 23.4609 15.8781 24.042 16.1548C24.6286 16.4259 25.0713 16.8188 25.3701 17.3335C25.6745 17.8426 25.8267 18.4513 25.8267 19.1597C25.8267 19.5581 25.763 19.9482 25.6357 20.3301C25.5085 20.7064 25.3258 21.0827 25.0879 21.459C24.8555 21.8298 24.5732 22.2061 24.2412 22.5879C23.9092 22.9697 23.5412 23.3654 23.1372 23.7749L21.0371 26.1323H26.2168Z" fill="white"/>
</g>
<defs>
<clipPath id="clip0_1_182">
<rect width="43" height="43" fill="white"/>
</clipPath>
</defs>
</svg>
